<?xml version="1.0" encoding="UTF-8" standalone="no"?>
<svg
   id="svg"
   width="400"
   height="486"
   viewBox="0, 0, 400,486"
   version="1.1"
   sodipodi:docname="engineering_insignia_button.svg"
   inkscape:version="1.3.2 (091e20e, 2023-11-25, custom)"
   xmlns:inkscape="http://www.inkscape.org/namespaces/inkscape"
   xmlns:sodipodi="http://sodipodi.sourceforge.net/DTD/sodipodi-0.dtd"
   xmlns="http://www.w3.org/2000/svg"
   xmlns:svg="http://www.w3.org/2000/svg">
  <defs
     id="defs1" />
  <sodipodi:namedview
     id="namedview1"
     pagecolor="#505050"
     bordercolor="#ffffff"
     borderopacity="1"
     inkscape:showpageshadow="0"
     inkscape:pageopacity="0"
     inkscape:pagecheckerboard="1"
     inkscape:deskcolor="#505050"
     inkscape:zoom="1.6728395"
     inkscape:cx="199.95941"
     inkscape:cy="243"
     inkscape:window-width="1920"
     inkscape:window-height="1009"
     inkscape:window-x="1912"
     inkscape:window-y="-8"
     inkscape:window-maximized="1"
     inkscape:current-layer="svg" />
  <g
     id="svgg"
     style="fill:#ffffff">
    <path
       id="path0"
       d="M196.203 11.250 C 188.919 22.163,176.000 43.370,176.000 44.414 C 176.000 44.758,174.871 46.829,173.490 49.016 C 152.386 82.447,111.320 179.141,94.928 234.000 C 93.202 239.775,90.248 249.675,88.362 256.000 C 70.720 315.179,58.513 385.754,54.462 451.985 C 51.934 493.323,51.638 493.180,76.270 462.500 C 112.976 416.780,127.306 400.569,158.942 368.976 C 185.383 342.571,199.385 330.754,220.823 316.751 C 229.862 310.847,251.998 305.084,258.338 306.983 C 280.709 313.686,315.268 370.568,344.465 448.745 C 360.063 490.509,351.878 411.271,329.977 308.500 C 303.239 183.028,260.244 74.870,211.215 9.750 C 203.165 -0.942,204.425 -1.068,196.203 11.250 M213.554 51.000 C 225.493 71.607,231.275 82.303,236.802 94.000 C 259.157 141.315,279.787 199.235,293.968 254.500 C 298.149 270.793,310.000 320.451,310.000 321.677 C 310.000 323.581,306.497 320.039,298.497 310.048 C 277.187 283.431,261.623 275.471,240.574 280.423 C 205.170 288.753,161.759 323.984,96.657 397.220 C 75.790 420.695,77.235 420.348,79.426 401.361 C 92.857 284.965,138.239 146.359,194.958 48.500 C 203.938 33.007,203.062 32.889,213.554 51.000 M150.145 54.576 C 73.846 77.130,20.325 133.194,4.535 207.106 C -6.137 257.054,4.428 312.913,32.790 356.500 C 41.402 369.735,54.985 385.788,55.001 382.750 C 55.002 382.613,55.677 378.675,56.500 374.000 C 58.764 361.148,58.547 359.004,54.441 353.626 C -18.895 257.582,29.768 113.049,148.233 75.053 C 152.555 73.667,154.221 71.551,159.887 60.250 L 164.022 52.000 161.261 52.053 C 159.743 52.082,154.740 53.218,150.145 54.576 M249.918 57.285 C 253.527 66.778,261.066 79.006,263.301 78.993 C 266.831 78.974,297.464 95.676,307.182 102.918 C 381.906 158.606,402.522 262.420,354.479 341.091 C 344.562 357.329,345.156 352.992,349.652 376.342 L 350.199 379.183 353.210 376.342 C 356.784 372.969,373.032 348.645,378.822 338.000 C 384.634 327.313,392.321 305.063,396.240 287.582 C 399.713 272.087,399.642 222.543,396.123 207.000 C 382.435 146.538,341.816 94.280,288.968 69.140 C 264.351 57.430,248.097 52.496,249.918 57.285 M197.500 134.844 C 186.863 140.494,164.078 153.329,158.750 156.672 C 153.803 159.776,153.839 162.460,159.628 220.783 C 160.517 229.739,159.953 229.448,203.500 243.398 C 248.449 257.797,249.430 258.022,248.820 253.779 C 248.586 252.154,247.159 251.042,243.500 249.634 C 180.557 225.403,153.754 191.609,174.423 162.538 C 195.725 132.576,239.609 143.026,239.348 178.000 C 239.133 206.756,219.274 213.925,199.670 192.322 C 190.544 182.266,189.504 186.444,197.263 201.996 C 205.168 217.838,208.644 219.158,232.876 215.519 C 248.598 213.157,247.529 215.304,249.721 181.715 C 251.636 152.357,252.367 154.674,238.416 145.881 C 210.297 128.158,210.157 128.121,197.500 134.844 M304.603 394.753 C 298.760 399.225,299.589 398.688,289.000 404.851 C 244.287 430.874,185.095 435.514,137.033 416.762 L 126.566 412.679 120.283 419.543 C 112.540 428.002,112.494 427.440,121.250 431.454 C 179.882 458.337,255.720 451.450,311.000 414.224 C 321.058 407.451,321.474 406.241,316.745 397.500 C 312.770 390.150,311.110 389.774,304.603 394.753 "
       stroke="none"
       fill="#000000"
       fill-rule="evenodd"
       style="fill:#ffffff" />
  </g>
</svg>
