<?xml version="1.0" encoding="UTF-8" standalone="no"?>
<!-- Created with Inkscape (http://www.inkscape.org/) -->

<svg
   width="27.872461mm"
   height="45.661533mm"
   viewBox="0 0 27.872461 45.661533"
   version="1.1"
   id="svg1"
   xml:space="preserve"
   xmlns:inkscape="http://www.inkscape.org/namespaces/inkscape"
   xmlns:sodipodi="http://sodipodi.sourceforge.net/DTD/sodipodi-0.dtd"
   xmlns="http://www.w3.org/2000/svg"
   xmlns:svg="http://www.w3.org/2000/svg"><sodipodi:namedview
     id="namedview1"
     pagecolor="#505050"
     bordercolor="#ffffff"
     borderopacity="1"
     inkscape:showpageshadow="0"
     inkscape:pageopacity="0"
     inkscape:pagecheckerboard="1"
     inkscape:deskcolor="#505050"
     inkscape:document-units="mm" /><defs
     id="defs1" /><g
     inkscape:label="Layer 1"
     inkscape:groupmode="layer"
     id="layer1"
     transform="translate(-48.727716,-46.63922)"><path
       style="fill:#ffffff"
       d="m 48.924372,89.169067 c 0.274901,-4.377693 1.142476,-10.321986 2.233415,-15.302519 l 0.927272,-4.233333 1.559534,-4.688729 c 2.380156,-7.155929 5.824961,-14.323276 8.295251,-17.259311 l 0.880036,-1.045957 0.757374,1.178248 c 5.766825,8.971447 11.454189,25.608852 12.821401,37.506799 0.413176,3.595602 0.349513,3.576148 -1.735656,-0.530394 -2.124263,-4.183534 -4.263095,-7.512175 -5.556908,-8.648158 L 68.167657,75.321757 H 67.242026 66.316395 L 65.06842,75.96327 c -2.958804,1.520954 -7.779204,6.078077 -12.69158,11.998397 -1.273101,1.534322 -2.614968,3.138292 -2.981927,3.56438 l -0.667198,0.774704 z"
       id="path29756"
       inkscape:label="federation"
       inkscape:export-filename="path29756.svg"
       inkscape:export-xdpi="96"
       inkscape:export-ydpi="96" /></g></svg>
