<?xml version="1.0" encoding="UTF-8" standalone="no"?>
<!-- Created with Inkscape (http://www.inkscape.org/) -->

<svg
   width="1920"
   height="1080"
   viewBox="0 0 508 285.75001"
   version="1.1"
   id="svg1"
   inkscape:version="1.3.2 (091e20e, 2023-11-25, custom)"
   sodipodi:docname="HUD_layout.svg"
   inkscape:export-filename="HUD_layout.png"
   inkscape:export-xdpi="96"
   inkscape:export-ydpi="96"
   xml:space="preserve"
   xmlns:inkscape="http://www.inkscape.org/namespaces/inkscape"
   xmlns:sodipodi="http://sodipodi.sourceforge.net/DTD/sodipodi-0.dtd"
   xmlns="http://www.w3.org/2000/svg"
   xmlns:svg="http://www.w3.org/2000/svg"><sodipodi:namedview
     id="namedview1"
     pagecolor="#505050"
     bordercolor="#ffffff"
     borderopacity="1"
     inkscape:showpageshadow="0"
     inkscape:pageopacity="0"
     inkscape:pagecheckerboard="1"
     inkscape:deskcolor="#505050"
     inkscape:document-units="px"
     inkscape:zoom="0.5"
     inkscape:cx="983"
     inkscape:cy="-19"
     inkscape:window-width="1920"
     inkscape:window-height="1009"
     inkscape:window-x="-8"
     inkscape:window-y="-8"
     inkscape:window-maximized="1"
     inkscape:current-layer="g3"
     showgrid="true"><inkscape:grid
       id="grid1"
       units="px"
       originx="0"
       originy="0"
       spacingx="0.26458334"
       spacingy="0.26458334"
       empcolor="#0099e5"
       empopacity="0.30196078"
       color="#0099e5"
       opacity="0.14901961"
       empspacing="5"
       dotted="false"
       gridanglex="30"
       gridanglez="30"
       visible="true"
       enabled="true" /></sodipodi:namedview><defs
     id="defs1"><symbol
       id="symbol4"><path
         d="m 439.20834,5.2916669 c -3.6531,1e-7 -6.61458,3.5537746 -6.61458,7.9375001 0,4.383725 2.96148,7.9375 6.61458,7.9375 h 44.97917 c 3.65312,0 6.61458,-3.553748 6.61458,-7.9375 0,-4.3837519 -2.96146,-7.9375 -6.61458,-7.9375001 z"
         style="fill:#fece63;stroke-width:2.89836"
         id="path4" /></symbol><symbol
       id="symbol5"><rect
         style="fill:#f89722;fill-opacity:1;stroke-width:0.78327"
         id="rect6-2"
         width="13.229169"
         height="13.239564"
         x="281.78125"
         y="26.458334" /></symbol></defs><g
     id="g3"
     inkscape:label="Top Panel"
     transform="scale(1,0.80000003)"><rect
       style="display:none;fill:#000000;fill-opacity:1;stroke-width:3.17224"
       id="rect5"
       width="481.54166"
       height="38.033855"
       x="26.458332"
       y="0" /><rect
       style="fill:#f89722;fill-opacity:1;stroke-width:0.43769"
       id="rect6"
       width="6.6145854"
       height="8.2682295"
       x="101.86459"
       y="24.804688"
       inkscape:export-filename="HUD_topPanel.svg"
       inkscape:export-xdpi="96"
       inkscape:export-ydpi="96" /><rect
       style="fill:#f89722;fill-opacity:1;stroke-width:0.43769"
       id="rect6-3"
       width="6.6145854"
       height="8.2682295"
       x="297.65628"
       y="24.804688" /><rect
       style="fill:#cb6666;fill-opacity:1;stroke-width:2.41718"
       id="rect6-0-1"
       width="201.73973"
       height="8.2682295"
       x="306.26028"
       y="24.804688" /><rect
       style="fill:#cb99c5;fill-opacity:1;stroke-width:2.31522"
       id="rect6-9"
       width="185.07607"
       height="8.2682295"
       x="110.59584"
       y="24.804688" /><path
       id="path5"
       style="fill:#9abce3;stroke-width:2.57917"
       d="M 0,-0.14714982 0.00517,25.078464 c 0.052805,7.248271 5.9338275,7.726615 18.809146,7.994453 h 61.936789 l -0.0041,-3.18843 -0.04908,-5.0798 c -7.744008,-0.02806 -15.455284,0.09786 -23.200672,0.121328 l -26.998353,0.05445 c -5.04583,-0.01743 -9.278818,-2.225982 -9.284705,-5.076636 l -0.08685,-20.16692144 z"
       sodipodi:nodetypes="ccccccccccc" /><rect
       style="fill:#9abce3;stroke-width:3.13489"
       id="rect7"
       width="19.314579"
       height="8.2682285"
       x="80.697929"
       y="24.804688" /></g><g
     id="g1"
     inkscape:label="HUD Button"
     transform="translate(-2.7310004,21.686453)"
     style="display:none"><path
       id="path41"
       style="fill:#d8a56f;fill-opacity:1;stroke-width:0.249894"
       inkscape:label="Bottom Right"
       d="m 491.88012,229.57483 a 17.295859,17.295859 0 0 1 -15.63013,15.64396 l 5.2e-4,16.29183 a 31.919952,31.935932 0 0 0 31.91991,-31.93579 z" /><path
       id="path42"
       style="fill:#b67cd1;stroke-width:0.249894"
       inkscape:label="Bottom Left"
       d="m 442.2657,229.57483 a 31.920026,31.935932 0 0 0 31.92043,31.93579 l -5.3e-4,-16.29234 a 17.295859,17.295859 0 0 1 -15.62911,-15.64345 z" /><path
       id="path43"
       style="fill:#959ffe;fill-opacity:1;stroke-width:0.249894"
       d="m 474.18613,195.60589 c -6.65844,2e-5 -12.84057,2.03948 -17.95652,5.52836 -8.42932,5.74846 -13.96401,15.43146 -13.96391,26.40743 h 16.29079 a 17.295859,17.295859 0 0 1 15.62964,-15.64397 z" /><path
       id="path44"
       style="fill:#b67cd1;stroke-width:0.249891"
       inkscape:label="Top right"
       d="m 476.24999,195.60589 v 16.25345 a 17.295859,17.295859 0 0 1 15.66801,15.68234 h 16.25242 a 31.919915,31.935487 0 0 0 -31.91992,-31.93578 31.919915,31.935487 0 0 0 -5.2e-4,0 z" /><circle
       style="fill:#e9e5b8;fill-opacity:1;fill-rule:nonzero;stroke-width:0.555979"
       id="circle44"
       cx="475.21814"
       cy="228.55826"
       r="14.806746" /><text
       xml:space="preserve"
       style="font-style:normal;font-variant:normal;font-weight:normal;font-stretch:normal;font-size:8.38439px;font-family:'Univers UltraCondensed';-inkscape-font-specification:'Univers UltraCondensed, ';fill:#a43333;stroke-width:0.262011"
       x="450.60904"
       y="214.60135"
       id="text1-8"><tspan
         sodipodi:role="line"
         id="tspan1-2"
         style="font-weight:normal;font-size:8.38439px;fill:#000000;fill-opacity:1;stroke-width:0.262011"
         x="450.60904"
         y="214.60135">WARP</tspan></text><text
       xml:space="preserve"
       style="font-style:normal;font-variant:normal;font-weight:normal;font-stretch:normal;font-size:8.38439px;font-family:'Univers UltraCondensed';-inkscape-font-specification:'Univers UltraCondensed, ';fill:#000000;fill-opacity:1;stroke-width:0.262011"
       x="452.52103"
       y="248.57018"
       id="text2-7"><tspan
         sodipodi:role="line"
         id="tspan2-2"
         style="font-size:8.38439px;stroke-width:0.262011"
         x="452.52103"
         y="248.57018">HAIL</tspan></text><text
       xml:space="preserve"
       style="font-style:normal;font-variant:normal;font-weight:normal;font-stretch:normal;font-size:8.38439px;font-family:'Univers UltraCondensed';-inkscape-font-specification:'Univers UltraCondensed, ';fill:#000000;fill-opacity:1;stroke-width:0.262011"
       x="484.99054"
       y="214.60135"
       id="text3-8"><tspan
         sodipodi:role="line"
         id="tspan3-9"
         style="font-weight:bold;font-size:8.38439px;stroke-width:0.262011"
         x="484.99054"
         y="214.60135">BEAM</tspan></text><text
       xml:space="preserve"
       style="font-style:normal;font-variant:normal;font-weight:normal;font-stretch:normal;font-size:6.987px;font-family:'Univers UltraCondensed';-inkscape-font-specification:'Univers UltraCondensed, ';fill:#000000;fill-opacity:1;stroke-width:0.262011"
       x="469.62363"
       y="231.58582"
       id="text4-4"><tspan
         sodipodi:role="line"
         id="tspan4-7"
         style="font-size:8.38439px;stroke-width:0.262011"
         x="469.62363"
         y="231.58582">SHIP</tspan><tspan
         sodipodi:role="line"
         style="stroke-width:0.262011"
         x="469.62363"
         y="240.75504"
         id="tspan5-7" /></text><text
       xml:space="preserve"
       style="font-style:normal;font-variant:normal;font-weight:normal;font-stretch:normal;font-size:8.38439px;font-family:'Univers UltraCondensed';-inkscape-font-specification:'Univers UltraCondensed, ';fill:#000000;fill-opacity:1;stroke-width:0.262011"
       x="485.45316"
       y="248.57018"
       id="text6-1"><tspan
         sodipodi:role="line"
         id="tspan6-0"
         style="font-size:8.38439px;stroke-width:0.262011"
         x="485.45316"
         y="248.57018">DOCK</tspan></text></g><g
     inkscape:groupmode="layer"
     id="layer1"
     inkscape:label="Buttom Panel"><path
       d="m 478.89585,227.54168 c -16.07355,-1e-5 -29.10417,13.03061 -29.10416,29.10416 V 285.75 h 29.10416 29.10416 v -21.12746 -7.9767 -29.10416 z"
       style="fill:#cb6666;stroke-width:1.81901"
       id="path2" /><rect
       style="fill:#9abce3;stroke-width:5.09297;fill-opacity:0"
       id="rect8"
       width="508.00006"
       height="58.20834"
       x="0"
       y="227.54167"
       inkscape:export-filename="..\..\..\..\..\Game Asset Editing\InkScape files\HUD_bottomPanel.svg"
       inkscape:export-xdpi="96"
       inkscape:export-ydpi="96" /></g></svg>
