<?xml version="1.0" encoding="UTF-8" standalone="no"?>
<!-- Created with Inkscape (http://www.inkscape.org/) -->

<svg
   width="38.684299mm"
   height="48.769836mm"
   viewBox="0 0 38.684299 48.769836"
   version="1.1"
   id="svg1"
   xml:space="preserve"
   xmlns:inkscape="http://www.inkscape.org/namespaces/inkscape"
   xmlns:sodipodi="http://sodipodi.sourceforge.net/DTD/sodipodi-0.dtd"
   xmlns="http://www.w3.org/2000/svg"
   xmlns:svg="http://www.w3.org/2000/svg"><sodipodi:namedview
     id="namedview1"
     pagecolor="#505050"
     bordercolor="#ffffff"
     borderopacity="1"
     inkscape:showpageshadow="0"
     inkscape:pageopacity="0"
     inkscape:pagecheckerboard="1"
     inkscape:deskcolor="#505050"
     inkscape:document-units="mm" /><defs
     id="defs1" /><g
     inkscape:label="Layer 1"
     inkscape:groupmode="layer"
     id="layer1"
     transform="translate(-78.940622,-51.514178)"><path
       style="fill:#ffffff"
       d="m 79.27465,99.252982 -0.33403,-1.11489 0.007,-2.13571 0.007,-2.13572 0.53703,-1.41335 c 0.74586,-1.96293 1.57361,-3.07371 4.0849,-5.48159 l 2.17139,-2.081978 1.15207,-1.918229 c 0.63364,-1.055026 1.22772,-1.91337 1.32016,-1.907432 0.29824,0.01916 6.65037,10.653179 6.65037,11.133299 0,0.0942 -0.80367,0.25732 -1.78593,0.3624 -5.6256,0.60184 -10.12963,3.00563 -12.41764,6.62729 -0.91603,1.449958 -0.97699,1.452838 -1.39253,0.0659 z m 24.19506,-5.50998 c -1.74625,-0.43566 -3.91914,-0.86691 -4.82864,-0.95834 -0.90951,-0.0914 -1.65365,-0.21194 -1.65365,-0.26781 0,-0.28501 1.78578,-3.55356 3.80571,-6.96565 1.24913,-2.110052 2.36774,-4.002992 2.4858,-4.206534 l 0.21465,-0.370076 1.39376,1.880082 c 0.76657,1.034045 2.04652,2.476665 2.84433,3.205818 l 1.45057,1.32574 1.92809,0.95291 1.92808,0.95292 2.29239,0.44467 2.29238,0.44468 8.7e-4,0.44053 8.7e-4,0.44054 -1.21785,1.072 -1.21785,1.07199 -1.49413,0.58201 -1.49413,0.58201 -2.77812,0.0823 -2.77813,0.0823 z m -8.27548,-5.34753 c -1.66315,-2.45986 -5.61514,-9.15683 -5.61514,-9.515318 0,-0.209686 0.54308,-1.857984 1.20685,-3.662886 2.57277,-6.995796 3.77394,-11.993493 4.59778,-19.129849 0.28322,-2.453362 0.56464,-4.510353 0.62538,-4.571092 0.0607,-0.06074 0.25189,1.172652 0.42478,2.740867 0.95733,8.683633 3.07012,17.607459 5.43448,22.953691 l 0.6292,1.422729 -0.53763,1.011399 c -0.2957,0.556269 -1.52492,2.678273 -2.7316,4.715565 -1.20668,2.037294 -2.3427,4.031584 -2.52449,4.431774 -0.44096,0.97071 -0.61609,0.92467 -1.50961,-0.39688 z"
       id="path29757"
       inkscape:label="klingon" /></g></svg>
