<?xml version="1.0" encoding="UTF-8" standalone="no"?>
<!-- Created with Inkscape (http://www.inkscape.org/) -->

<svg
   width="45.877785mm"
   height="45.337063mm"
   viewBox="0 0 45.877785 45.337063"
   version="1.1"
   id="svg1"
   xml:space="preserve"
   xmlns:inkscape="http://www.inkscape.org/namespaces/inkscape"
   xmlns:sodipodi="http://sodipodi.sourceforge.net/DTD/sodipodi-0.dtd"
   xmlns="http://www.w3.org/2000/svg"
   xmlns:svg="http://www.w3.org/2000/svg"><sodipodi:namedview
     id="namedview1"
     pagecolor="#505050"
     bordercolor="#ffffff"
     borderopacity="1"
     inkscape:showpageshadow="0"
     inkscape:pageopacity="0"
     inkscape:pagecheckerboard="1"
     inkscape:deskcolor="#505050"
     inkscape:document-units="mm" /><defs
     id="defs1" /><g
     inkscape:label="Layer 1"
     inkscape:groupmode="layer"
     id="layer1"
     transform="translate(-100.61537,0.03336308)"><path
       style="fill:#ffffff"
       d="m 120.67906,44.037176 c -0.97044,-0.68586 -1.85623,-1.339053 -1.96841,-1.451541 l -0.20398,-0.204523 0.6073,-0.425369 0.6073,-0.425368 0.3656,-0.875009 0.3656,-0.87501 -0.15763,-0.788165 -0.15763,-0.788165 -0.69894,-0.655608 -0.69894,-0.655608 -0.79375,-0.165332 -0.79375,-0.165333 -1.93979,0.931194 c -1.06688,0.512157 -2.08344,0.931194 -2.25902,0.931194 -0.17558,0 -2.45155,-1.518047 -5.0577,-3.373438 l -4.73847,-3.373437 -0.8716,-2.177622 -0.87161,-2.177622 -0.39913,-2.288807 -0.39914,-2.288807 0.009,-2.412738 0.009,-2.412738 0.36073,-1.984375 c 0.58282,-3.206117 2.84784,-8.4666671 3.64546,-8.4666671 h 0.20868 l 0.004,0.992187 c 0.004,0.978934 0.60689,3.9403631 0.85197,4.1854381 0.0694,0.06938 0.26196,-1.068199 0.42795,-2.527954 l 0.3018,-2.6541011 0.59614,-1.77905 0.59614,-1.779051 1.32291,-0.996419 c 0.72761,-0.548031 2.15419,-1.434331 3.17019,-1.96955698 l 1.84727,-0.973138 -1.24165,1.41938298 c -1.52967,1.748644 -2.70447,3.911132 -3.23839,5.960965 l -0.40513,1.555391 0.005,2.2595151 0.005,2.259516 0.39058,1.852083 0.39058,1.852084 0.81142,1.652403 0.81142,1.652404 1.2408,1.27292 1.24081,1.272919 1.52135,0.743747 1.52136,0.743747 v 0.286001 c 0,0.1573 1.30968,2.765592 2.91041,5.796203 l 2.91042,5.510202 v 4.62379 4.62379 l -0.19844,-0.0098 c -0.10914,-0.0054 -0.99243,-0.570911 -1.96287,-1.256771 z m 3.74881,-3.374416 v -4.640939 l 3.07626,-5.876249 3.07626,-5.876248 1.29506,-0.641917 1.29506,-0.641918 1.29033,-1.364332 1.29033,-1.364331 0.66501,-1.312344 c 0.36576,-0.721788 0.87833,-2.021632 1.13904,-2.888542 l 0.47402,-1.5762 0.0123,-3.175 0.0123,-3.1750001 -0.73379,-1.993897 -0.7338,-1.993898 -1.43589,-1.908707 c -0.78974,-1.049788 -1.37753,-1.90870598 -1.30619,-1.90870598 0.34973,0 2.53549,1.24884198 3.99212,2.28091898 l 1.63454,1.158127 0.54672,1.46125 c 0.49841,1.332113 0.72509,2.48723 1.24506,6.3444961 l 0.17834,1.322916 0.32484,-1.071549 c 0.17867,-0.589353 0.41104,-1.814191 0.51639,-2.7218641 l 0.19154,-1.650314 0.39263,0.325858 c 0.21595,0.179222 0.86535,1.266032 1.4431,2.4151341 l 1.05047,2.089277 0.56662,2.158813 0.56661,2.158812 -0.0146,3.96875 -0.0146,3.96875 -0.56156,2.071309 c -0.30886,1.139219 -0.88071,2.782455 -1.27077,3.651635 l -0.70921,1.580327 -4.69743,3.293677 c -2.58359,1.811523 -4.81706,3.293678 -4.96328,3.293678 -0.14622,0 -1.13876,-0.422294 -2.20564,-0.938432 l -1.93979,-0.938432 -0.72647,0.137841 c -0.39956,0.07581 -1.02379,0.332655 -1.38719,0.570761 l -0.66072,0.432919 -0.30423,1.015428 -0.30423,1.015427 0.33817,0.81642 0.33818,0.81642 0.67097,0.527787 0.67097,0.527788 -0.24376,0.211168 c -0.52925,0.458473 -3.78729,2.684072 -3.9292,2.684072 -0.0831,0 -0.15103,-2.088423 -0.15103,-4.64094 z m -2.69421,-9.578595 c -0.68593,-1.343384 -1.47982,-2.638124 -2.05124,-4.036716 h 0.27262 c 0.14994,0 1.0286,0.26384 1.95258,0.586312 l 1.67996,0.586311 1.73288,-0.611756 c 0.95308,-0.336466 1.84985,-0.57054 1.99283,-0.520166 l 0.25996,0.09159 -1.89415,3.505729 c -1.04178,1.928151 -1.97962,3.505729 -2.08409,3.505729 -0.10447,0 -0.94208,-1.398165 -1.86135,-3.107033 z"
       id="path29755"
       sodipodi:nodetypes="cscccccccccccssscccccccssccsscccsscsscccccccccccsscccsccccccccccsscccccssscsscsscsscccccsscssscsscccccccssccscsscsscsss"
       inkscape:label="romulan" /></g></svg>
