<?xml version="1.0" encoding="UTF-8" standalone="no"?>
<svg
   viewBox="0 -0.5 16 16"
   shape-rendering="crispEdges"
   version="1.1"
   id="svg2"
   sodipodi:docname="TextButton.svg"
   width="16"
   height="16"
   inkscape:version="1.3.2 (091e20e, 2023-11-25, custom)"
   xmlns:inkscape="http://www.inkscape.org/namespaces/inkscape"
   xmlns:sodipodi="http://sodipodi.sourceforge.net/DTD/sodipodi-0.dtd"
   xmlns="http://www.w3.org/2000/svg"
   xmlns:svg="http://www.w3.org/2000/svg">
  <defs
     id="defs2" />
  <sodipodi:namedview
     id="namedview2"
     pagecolor="#505050"
     bordercolor="#ffffff"
     borderopacity="1"
     inkscape:showpageshadow="0"
     inkscape:pageopacity="0"
     inkscape:pagecheckerboard="1"
     inkscape:deskcolor="#505050"
     showgrid="true"
     inkscape:zoom="32"
     inkscape:cx="16.515625"
     inkscape:cy="8.734375"
     inkscape:window-width="1920"
     inkscape:window-height="1009"
     inkscape:window-x="1912"
     inkscape:window-y="-8"
     inkscape:window-maximized="1"
     inkscape:current-layer="svg2">
    <inkscape:grid
       id="grid2"
       units="px"
       originx="0"
       originy="0"
       spacingx="1"
       spacingy="1"
       empcolor="#0099e5"
       empopacity="0.30196078"
       color="#0099e5"
       opacity="0.14901961"
       empspacing="4"
       dotted="false"
       gridanglex="30"
       gridanglez="30"
       visible="true"
       snapvisiblegridlinesonly="false" />
  </sodipodi:namedview>
  <metadata
     id="metadata1">Made with Pixels to Svg https://codepen.io/shshaw/pen/XbxvNj</metadata>
  <path
     d="m 10.25,0.76383764 h 0.5 m 4.5,0 h 0.5 m -6,0.50000006 h 0.5 m -1,0.5 h 0.5 m -1,0.5 h 0.5 m -1,0.5 h 0.5 m -0.5,0.4999999 h 0.5 m 0,0.5 h 0.5 m 0,0.5 h 0.5 m 0,0.5 h 0.5 m 0,0.5 h 0.5 m 4.5,0 h 0.5 m -5,-4.49999996 h 4.5 m -5,0.49999996 h 5.5 m -6,0.5 h 6 m -6.5,0.5 h 6.5 m -7,0.5 h 1 m 1,0 h 5 m -7,0.5 h 1 m 1,0 h 5 m -6.5,0.5 h 6.5 m -6,0.5 h 6 m -5.5,0.5 h 5.5 m -5,0.5 h 4.5"
     style="stroke:#8dee96;stroke-width:0.5"
     id="path1-7" />
  <g
     id="g2"
     transform="matrix(0.83333332,0,0,1,2.5000001,0)">
    <path
       id="path1-2"
       style="stroke:#8dee96;stroke-width:0.5"
       d="m 11,7.7244772 h 2 m -2,0.5 h 2 m -3,0.5 h 2 2 m -4,0.5 h 4 m -5,0.5 h 2 m 2,0 h 2 M 9,10.224477 h 2 m 2,0 h 2 m -6,0.5 h 6 m -6,0.5 H 13.3125 15 m -6,0.5 h 2 m 2,0 h 2 m -6,0.5 h 2 m 2,0 h 2 m -6,0.5 h 2 m 2,0 h 2 m -6,0.5 h 2 m 2,0 h 2 m -6,0.5 h 2 m 2,0 h 2 m -6,0.5 h 2 m 2,0 h 2"
       sodipodi:nodetypes="cccccccccccccccccccccccccccccccccccccccccccccc" />
  </g>
  <path
     d="M 3.445,0.5 V 3.867849 L 2,2.8305128 0.88999997,4.6192459 3.89,6.7691654 c 0.336037,0.2410049 0.773963,0.2410049 1.11,0 L 8,4.6192459 6.89,2.8305128 5.445,3.867849 V 0.5 Z m 5,6.4497586 v 1.0749598 m -5.5,1.0749598 c -0.828427,0 -1.5,0.7219139 -1.5,1.6124398 v 1.612439 H 0.44499997 v 2.14992 H 8.445 v -2.14992 h -1 v -1.612439 c 0,-0.8905259 -0.671573,-1.6124398 -1.5,-1.6124398 z"
     style="fill:#8eef97;stroke-width:1.03681"
     id="path1"
     sodipodi:nodetypes="cccccccccccccssccccccsss" />
</svg>
